<mxfile host="app.diagrams.net" modified="2021-06-22T07:09:07.781Z" agent="5.0 (Windows NT 10.0; Win64; x64) AppleWebKit/537.36 (KHTML, like Gecko) Chrome/90.0.4430.212 Safari/537.36" etag="2IpfnsyWEvwp_fwB3yqh" version="14.8.0" type="github">
  <diagram id="C5RBs43oDa-KdzZeNtuy" name="Page-1">
    <mxGraphModel dx="1718" dy="935" grid="1" gridSize="10" guides="1" tooltips="1" connect="1" arrows="1" fold="1" page="1" pageScale="1" pageWidth="827" pageHeight="1169" math="0" shadow="0">
      <root>
        <mxCell id="WIyWlLk6GJQsqaUBKTNV-0" />
        <mxCell id="WIyWlLk6GJQsqaUBKTNV-1" parent="WIyWlLk6GJQsqaUBKTNV-0" />
        <mxCell id="n5MdxSmS_SGiVDrM9WLQ-1" value="" style="edgeStyle=orthogonalEdgeStyle;rounded=0;orthogonalLoop=1;jettySize=auto;html=1;" parent="WIyWlLk6GJQsqaUBKTNV-1" source="WIyWlLk6GJQsqaUBKTNV-3" edge="1">
          <mxGeometry relative="1" as="geometry">
            <mxPoint x="370" y="150" as="targetPoint" />
          </mxGeometry>
        </mxCell>
        <mxCell id="WIyWlLk6GJQsqaUBKTNV-3" value="每天定时任务跑D-1日的数据" style="rounded=1;whiteSpace=wrap;html=1;fontSize=12;glass=0;strokeWidth=1;shadow=0;" parent="WIyWlLk6GJQsqaUBKTNV-1" vertex="1">
          <mxGeometry x="310" y="70" width="120" height="40" as="geometry" />
        </mxCell>
        <mxCell id="n5MdxSmS_SGiVDrM9WLQ-7" value="" style="edgeStyle=orthogonalEdgeStyle;rounded=0;orthogonalLoop=1;jettySize=auto;html=1;" parent="WIyWlLk6GJQsqaUBKTNV-1" source="n5MdxSmS_SGiVDrM9WLQ-3" target="n5MdxSmS_SGiVDrM9WLQ-6" edge="1">
          <mxGeometry relative="1" as="geometry" />
        </mxCell>
        <mxCell id="n5MdxSmS_SGiVDrM9WLQ-3" value="获取&lt;b&gt;fund侧&lt;/b&gt;的对账结果数据" style="shape=process;whiteSpace=wrap;html=1;backgroundOutline=1;" parent="WIyWlLk6GJQsqaUBKTNV-1" vertex="1">
          <mxGeometry x="310" y="150" width="120" height="60" as="geometry" />
        </mxCell>
        <mxCell id="Gm9q5PBNxo7W93uRg2Yn-2" value="" style="edgeStyle=orthogonalEdgeStyle;rounded=0;orthogonalLoop=1;jettySize=auto;html=1;" edge="1" parent="WIyWlLk6GJQsqaUBKTNV-1" source="n5MdxSmS_SGiVDrM9WLQ-6">
          <mxGeometry relative="1" as="geometry">
            <mxPoint x="370" y="430" as="targetPoint" />
          </mxGeometry>
        </mxCell>
        <mxCell id="n5MdxSmS_SGiVDrM9WLQ-6" value="循环处理单条数据" style="shape=process;whiteSpace=wrap;html=1;backgroundOutline=1;" parent="WIyWlLk6GJQsqaUBKTNV-1" vertex="1">
          <mxGeometry x="310" y="290" width="120" height="60" as="geometry" />
        </mxCell>
        <mxCell id="n5MdxSmS_SGiVDrM9WLQ-8" value="fund侧需要提供&lt;br&gt;1、loan_repay_plan_extends.tradeId&lt;br&gt;2、支付通道&lt;br&gt;3、主商户&lt;br&gt;4、子商户&lt;br&gt;5、金额&lt;br&gt;6、对账日期" style="shape=document;whiteSpace=wrap;html=1;boundedLbl=1;align=center;" parent="WIyWlLk6GJQsqaUBKTNV-1" vertex="1">
          <mxGeometry x="640" y="85" width="280" height="190" as="geometry" />
        </mxCell>
        <mxCell id="n5MdxSmS_SGiVDrM9WLQ-11" value="" style="endArrow=none;dashed=1;html=1;entryX=0;entryY=0.5;entryDx=0;entryDy=0;exitX=1;exitY=0.5;exitDx=0;exitDy=0;" parent="WIyWlLk6GJQsqaUBKTNV-1" source="n5MdxSmS_SGiVDrM9WLQ-3" target="n5MdxSmS_SGiVDrM9WLQ-8" edge="1">
          <mxGeometry width="50" height="50" relative="1" as="geometry">
            <mxPoint x="430" y="220" as="sourcePoint" />
            <mxPoint x="480" y="170" as="targetPoint" />
          </mxGeometry>
        </mxCell>
        <mxCell id="Gm9q5PBNxo7W93uRg2Yn-5" value="" style="edgeStyle=orthogonalEdgeStyle;rounded=0;orthogonalLoop=1;jettySize=auto;html=1;" edge="1" parent="WIyWlLk6GJQsqaUBKTNV-1" source="Gm9q5PBNxo7W93uRg2Yn-3">
          <mxGeometry relative="1" as="geometry">
            <mxPoint x="370" y="780" as="targetPoint" />
          </mxGeometry>
        </mxCell>
        <mxCell id="Gm9q5PBNxo7W93uRg2Yn-3" value="根据tradeId50编号拿到还款计划等信息" style="rounded=0;whiteSpace=wrap;html=1;" vertex="1" parent="WIyWlLk6GJQsqaUBKTNV-1">
          <mxGeometry x="310" y="430" width="120" height="60" as="geometry" />
        </mxCell>
        <mxCell id="Gm9q5PBNxo7W93uRg2Yn-6" value="1、业务侧判断 是主交易号还是子交易号 根据fund_mgmt_reconciliation_record.is_settle 进行判断：结清是主交易号、非结清是子交易号。&lt;br&gt;2、还款类型的取值&lt;span&gt;	&lt;/span&gt;码值：提前还款、提前结清、正常还款、逾期还款、部分还款&lt;br&gt;判断逻辑：loan_repay_plan.EARLY_FLAG&lt;br&gt;字段释义参考：RepayEarlyFlagTypeEnum" style="shape=document;whiteSpace=wrap;html=1;boundedLbl=1;rounded=0;align=left;" vertex="1" parent="WIyWlLk6GJQsqaUBKTNV-1">
          <mxGeometry x="590" y="290" width="570" height="250" as="geometry" />
        </mxCell>
        <mxCell id="Gm9q5PBNxo7W93uRg2Yn-8" value="" style="endArrow=none;dashed=1;html=1;exitX=1;exitY=0.5;exitDx=0;exitDy=0;entryX=0;entryY=0.5;entryDx=0;entryDy=0;" edge="1" parent="WIyWlLk6GJQsqaUBKTNV-1" source="Gm9q5PBNxo7W93uRg2Yn-3" target="Gm9q5PBNxo7W93uRg2Yn-6">
          <mxGeometry width="50" height="50" relative="1" as="geometry">
            <mxPoint x="450" y="490" as="sourcePoint" />
            <mxPoint x="500" y="440" as="targetPoint" />
          </mxGeometry>
        </mxCell>
        <mxCell id="Gm9q5PBNxo7W93uRg2Yn-9" value="&lt;div style=&quot;text-align: left&quot;&gt;&lt;span&gt;2种主状态：&lt;/span&gt;&lt;/div&gt;&lt;div style=&quot;text-align: left&quot;&gt;&lt;span&gt;1、代偿前&lt;/span&gt;&lt;/div&gt;&lt;div style=&quot;text-align: left&quot;&gt;&lt;span&gt;2、代偿后&lt;/span&gt;&lt;/div&gt;&lt;div style=&quot;text-align: left&quot;&gt;&lt;span&gt;代偿后又分为2种子情况：已代偿、信托分配。&lt;/span&gt;&lt;/div&gt;&lt;div style=&quot;text-align: left&quot;&gt;&lt;span&gt;三种状态的判断逻辑为：&lt;/span&gt;&lt;/div&gt;&lt;div style=&quot;text-align: left&quot;&gt;&lt;span&gt;1、查询代偿费用和信托分配：&lt;/span&gt;&lt;/div&gt;&lt;div style=&quot;text-align: left&quot;&gt;&lt;span&gt;1.1 select * from compensatory_detail where&amp;nbsp;&lt;/span&gt;&lt;/div&gt;&lt;div style=&quot;text-align: left&quot;&gt;&lt;span&gt;COMPENSATORY_TYPE &amp;lt;&amp;gt; 05 and&amp;nbsp; DEL_FLAG=0。&lt;/span&gt;&lt;/div&gt;&lt;div style=&quot;text-align: left&quot;&gt;&lt;span&gt;存在则判断COMPENSATORY_TYPE，=08是信托分配，!=08则是代偿。&lt;/span&gt;&lt;/div&gt;&lt;div style=&quot;text-align: left&quot;&gt;&lt;span&gt;1.2&amp;nbsp;&lt;/span&gt;&lt;span&gt;select * from debt_transfer_detail&amp;nbsp;where&amp;nbsp;&lt;/span&gt;&lt;/div&gt;&lt;div style=&quot;text-align: left&quot;&gt;COMPENSATORY_TYPE &amp;lt;&amp;gt; 05 and&amp;nbsp; DEL_FLAG=0。&lt;/div&gt;&lt;div style=&quot;text-align: left&quot;&gt;存在则判断COMPENSATORY_TYPE，=08是信托分配，!=08则是代偿。&lt;/div&gt;&lt;div style=&quot;text-align: left&quot;&gt;&lt;span&gt;2、其余的则为代偿前正常状态。&lt;/span&gt;&lt;/div&gt;" style="shape=document;whiteSpace=wrap;html=1;boundedLbl=1;rounded=0;" vertex="1" parent="WIyWlLk6GJQsqaUBKTNV-1">
          <mxGeometry x="640" y="552.5" width="440" height="267.5" as="geometry" />
        </mxCell>
        <mxCell id="Gm9q5PBNxo7W93uRg2Yn-11" value="" style="endArrow=none;dashed=1;html=1;exitX=1;exitY=0.5;exitDx=0;exitDy=0;" edge="1" parent="WIyWlLk6GJQsqaUBKTNV-1" source="Gm9q5PBNxo7W93uRg2Yn-27">
          <mxGeometry width="50" height="50" relative="1" as="geometry">
            <mxPoint x="440" y="810" as="sourcePoint" />
            <mxPoint x="638" y="606" as="targetPoint" />
          </mxGeometry>
        </mxCell>
        <mxCell id="Gm9q5PBNxo7W93uRg2Yn-29" value="" style="edgeStyle=orthogonalEdgeStyle;rounded=0;orthogonalLoop=1;jettySize=auto;html=1;" edge="1" parent="WIyWlLk6GJQsqaUBKTNV-1" source="Gm9q5PBNxo7W93uRg2Yn-27" target="Gm9q5PBNxo7W93uRg2Yn-28">
          <mxGeometry relative="1" as="geometry" />
        </mxCell>
        <mxCell id="Gm9q5PBNxo7W93uRg2Yn-27" value="判断资产状态：代偿前、代偿后" style="shape=process;whiteSpace=wrap;html=1;backgroundOutline=1;" vertex="1" parent="WIyWlLk6GJQsqaUBKTNV-1">
          <mxGeometry x="310" y="780" width="120" height="60" as="geometry" />
        </mxCell>
        <mxCell id="Gm9q5PBNxo7W93uRg2Yn-31" value="" style="edgeStyle=orthogonalEdgeStyle;rounded=0;orthogonalLoop=1;jettySize=auto;html=1;" edge="1" parent="WIyWlLk6GJQsqaUBKTNV-1" source="Gm9q5PBNxo7W93uRg2Yn-28">
          <mxGeometry relative="1" as="geometry">
            <mxPoint x="370" y="1060" as="targetPoint" />
          </mxGeometry>
        </mxCell>
        <mxCell id="Gm9q5PBNxo7W93uRg2Yn-28" value="根据资管状态获得 &lt;b&gt;财务侧&lt;/b&gt; 的支付通道商户号配置" style="whiteSpace=wrap;html=1;" vertex="1" parent="WIyWlLk6GJQsqaUBKTNV-1">
          <mxGeometry x="310" y="920" width="120" height="60" as="geometry" />
        </mxCell>
        <mxCell id="Gm9q5PBNxo7W93uRg2Yn-33" value="" style="edgeStyle=orthogonalEdgeStyle;rounded=0;orthogonalLoop=1;jettySize=auto;html=1;" edge="1" parent="WIyWlLk6GJQsqaUBKTNV-1" target="Gm9q5PBNxo7W93uRg2Yn-32">
          <mxGeometry relative="1" as="geometry">
            <mxPoint x="370" y="1120" as="sourcePoint" />
          </mxGeometry>
        </mxCell>
        <mxCell id="Gm9q5PBNxo7W93uRg2Yn-35" value="" style="edgeStyle=orthogonalEdgeStyle;rounded=0;orthogonalLoop=1;jettySize=auto;html=1;" edge="1" parent="WIyWlLk6GJQsqaUBKTNV-1" source="Gm9q5PBNxo7W93uRg2Yn-32" target="Gm9q5PBNxo7W93uRg2Yn-34">
          <mxGeometry relative="1" as="geometry" />
        </mxCell>
        <mxCell id="Gm9q5PBNxo7W93uRg2Yn-32" value="和fund侧提供的数据进行对账得到内部对账结果" style="whiteSpace=wrap;html=1;" vertex="1" parent="WIyWlLk6GJQsqaUBKTNV-1">
          <mxGeometry x="310" y="1200" width="120" height="60" as="geometry" />
        </mxCell>
        <mxCell id="Gm9q5PBNxo7W93uRg2Yn-34" value="end" style="ellipse;whiteSpace=wrap;html=1;" vertex="1" parent="WIyWlLk6GJQsqaUBKTNV-1">
          <mxGeometry x="310" y="1340" width="120" height="60" as="geometry" />
        </mxCell>
        <mxCell id="Gm9q5PBNxo7W93uRg2Yn-36" value="" style="endArrow=classic;html=1;entryX=0;entryY=0.5;entryDx=0;entryDy=0;" edge="1" parent="WIyWlLk6GJQsqaUBKTNV-1" target="n5MdxSmS_SGiVDrM9WLQ-6">
          <mxGeometry width="50" height="50" relative="1" as="geometry">
            <mxPoint x="370" y="1300" as="sourcePoint" />
            <mxPoint x="500" y="380" as="targetPoint" />
            <Array as="points">
              <mxPoint x="160" y="1300" />
              <mxPoint x="150" y="320" />
            </Array>
          </mxGeometry>
        </mxCell>
        <mxCell id="Gm9q5PBNxo7W93uRg2Yn-37" value="循环" style="text;html=1;align=center;verticalAlign=middle;resizable=0;points=[];autosize=1;strokeColor=none;" vertex="1" parent="WIyWlLk6GJQsqaUBKTNV-1">
          <mxGeometry x="120" y="740" width="40" height="20" as="geometry" />
        </mxCell>
        <mxCell id="Gm9q5PBNxo7W93uRg2Yn-38" value="&lt;span&gt;计算用户还款各费用项应进入的子商户号&lt;/span&gt;" style="shape=process;whiteSpace=wrap;html=1;backgroundOutline=1;" vertex="1" parent="WIyWlLk6GJQsqaUBKTNV-1">
          <mxGeometry x="310" y="1060" width="120" height="60" as="geometry" />
        </mxCell>
        <mxCell id="Gm9q5PBNxo7W93uRg2Yn-39" value="三种类型数据的金额 都用repay_order_balance where PLAN_ORDER_TYPE=base计算" style="shape=document;whiteSpace=wrap;html=1;boundedLbl=1;align=left;" vertex="1" parent="WIyWlLk6GJQsqaUBKTNV-1">
          <mxGeometry x="640" y="1040" width="370" height="160" as="geometry" />
        </mxCell>
        <mxCell id="Gm9q5PBNxo7W93uRg2Yn-41" value="" style="endArrow=none;dashed=1;html=1;entryX=-0.015;entryY=0.403;entryDx=0;entryDy=0;entryPerimeter=0;exitX=1;exitY=0.75;exitDx=0;exitDy=0;" edge="1" parent="WIyWlLk6GJQsqaUBKTNV-1" source="Gm9q5PBNxo7W93uRg2Yn-38" target="Gm9q5PBNxo7W93uRg2Yn-39">
          <mxGeometry width="50" height="50" relative="1" as="geometry">
            <mxPoint x="500" y="1120" as="sourcePoint" />
            <mxPoint x="550" y="1070" as="targetPoint" />
          </mxGeometry>
        </mxCell>
        <mxCell id="Gm9q5PBNxo7W93uRg2Yn-42" value="财务侧一条数据的配置项维度：&lt;br&gt;1、费用项&lt;br&gt;2、场景即2种：正常还款、非正常还款&lt;br&gt;3、fundCode+planCode&lt;br&gt;4、宝付子商户号/京东子商户号/支付宝子商户号&lt;br&gt;" style="shape=document;whiteSpace=wrap;html=1;boundedLbl=1;align=left;" vertex="1" parent="WIyWlLk6GJQsqaUBKTNV-1">
          <mxGeometry x="640" y="830" width="330" height="190" as="geometry" />
        </mxCell>
        <mxCell id="Gm9q5PBNxo7W93uRg2Yn-44" value="" style="endArrow=none;dashed=1;html=1;entryX=-0.011;entryY=0.467;entryDx=0;entryDy=0;entryPerimeter=0;exitX=1;exitY=0.5;exitDx=0;exitDy=0;" edge="1" parent="WIyWlLk6GJQsqaUBKTNV-1" source="Gm9q5PBNxo7W93uRg2Yn-28" target="Gm9q5PBNxo7W93uRg2Yn-42">
          <mxGeometry width="50" height="50" relative="1" as="geometry">
            <mxPoint x="460" y="980" as="sourcePoint" />
            <mxPoint x="510" y="930" as="targetPoint" />
          </mxGeometry>
        </mxCell>
        <mxCell id="Gm9q5PBNxo7W93uRg2Yn-48" value="疑问点：&lt;br&gt;fund提供文件还是业务侧直接查库" style="ellipse;shape=cloud;whiteSpace=wrap;html=1;" vertex="1" parent="WIyWlLk6GJQsqaUBKTNV-1">
          <mxGeometry x="20" y="100" width="180" height="120" as="geometry" />
        </mxCell>
        <mxCell id="Gm9q5PBNxo7W93uRg2Yn-49" value="" style="endArrow=classic;html=1;" edge="1" parent="WIyWlLk6GJQsqaUBKTNV-1" source="Gm9q5PBNxo7W93uRg2Yn-48">
          <mxGeometry width="50" height="50" relative="1" as="geometry">
            <mxPoint x="260" y="230" as="sourcePoint" />
            <mxPoint x="310" y="180" as="targetPoint" />
          </mxGeometry>
        </mxCell>
        <mxCell id="Gm9q5PBNxo7W93uRg2Yn-50" value="调取&lt;b&gt;财务侧 接口&lt;/b&gt;，一次性获取所有配置" style="rounded=0;whiteSpace=wrap;html=1;" vertex="1" parent="WIyWlLk6GJQsqaUBKTNV-1">
          <mxGeometry x="10" y="920" width="120" height="60" as="geometry" />
        </mxCell>
        <mxCell id="Gm9q5PBNxo7W93uRg2Yn-51" value="" style="endArrow=classic;html=1;entryX=0;entryY=0.5;entryDx=0;entryDy=0;exitX=1;exitY=0.5;exitDx=0;exitDy=0;" edge="1" parent="WIyWlLk6GJQsqaUBKTNV-1" source="Gm9q5PBNxo7W93uRg2Yn-50" target="Gm9q5PBNxo7W93uRg2Yn-28">
          <mxGeometry width="50" height="50" relative="1" as="geometry">
            <mxPoint x="490" y="1010" as="sourcePoint" />
            <mxPoint x="540" y="960" as="targetPoint" />
          </mxGeometry>
        </mxCell>
        <mxCell id="Gm9q5PBNxo7W93uRg2Yn-56" style="edgeStyle=orthogonalEdgeStyle;rounded=0;orthogonalLoop=1;jettySize=auto;html=1;entryX=0;entryY=0.75;entryDx=0;entryDy=0;" edge="1" parent="WIyWlLk6GJQsqaUBKTNV-1" source="Gm9q5PBNxo7W93uRg2Yn-55" target="WIyWlLk6GJQsqaUBKTNV-3">
          <mxGeometry relative="1" as="geometry" />
        </mxCell>
        <mxCell id="Gm9q5PBNxo7W93uRg2Yn-55" value="疑问点：fund侧能否主动通知业务侧触发对账" style="ellipse;shape=cloud;whiteSpace=wrap;html=1;" vertex="1" parent="WIyWlLk6GJQsqaUBKTNV-1">
          <mxGeometry x="100" width="140" height="85" as="geometry" />
        </mxCell>
      </root>
    </mxGraphModel>
  </diagram>
</mxfile>
